<mxfile host="app.diagrams.net" agent="Mozilla/5.0 (Windows NT 10.0; Win64; x64) AppleWebKit/537.36 (KHTML, like Gecko) Chrome/131.0.0.0 Safari/537.36" version="25.0.3">
  <diagram id="WI9T0HZ2pTsCkuznbFz-" name="Diagrama">
    <mxGraphModel dx="1050" dy="522" grid="1" gridSize="10" guides="1" tooltips="1" connect="1" arrows="1" fold="1" page="1" pageScale="1" pageWidth="827" pageHeight="1169" math="0" shadow="0">
      <root>
        <mxCell id="0" />
        <mxCell id="1" parent="0" />
        <mxCell id="FNbgbiCnl9SPCwAGtspi-2" value="" style="rounded=0;whiteSpace=wrap;html=1;" parent="1" vertex="1">
          <mxGeometry x="20" y="20" width="570" height="400" as="geometry" />
        </mxCell>
        <mxCell id="gzEWmLM0npyEMb-zcBX1-17" value="" style="edgeStyle=orthogonalEdgeStyle;rounded=0;orthogonalLoop=1;jettySize=auto;html=1;entryX=0.01;entryY=0.128;entryDx=0;entryDy=0;entryPerimeter=0;exitX=1.057;exitY=0.131;exitDx=0;exitDy=0;exitPerimeter=0;" parent="1" source="gzEWmLM0npyEMb-zcBX1-14" target="gzEWmLM0npyEMb-zcBX1-16" edge="1">
          <mxGeometry relative="1" as="geometry">
            <mxPoint x="152" y="90" as="sourcePoint" />
            <mxPoint x="282" y="90" as="targetPoint" />
          </mxGeometry>
        </mxCell>
        <mxCell id="gzEWmLM0npyEMb-zcBX1-20" value="POST /login" style="edgeLabel;html=1;align=center;verticalAlign=middle;resizable=0;points=[];" parent="gzEWmLM0npyEMb-zcBX1-17" connectable="0" vertex="1">
          <mxGeometry x="-0.3108" y="1" relative="1" as="geometry">
            <mxPoint x="15" y="-11" as="offset" />
          </mxGeometry>
        </mxCell>
        <mxCell id="gzEWmLM0npyEMb-zcBX1-23" style="edgeStyle=orthogonalEdgeStyle;rounded=0;orthogonalLoop=1;jettySize=auto;html=1;entryX=0;entryY=0.5;entryDx=0;entryDy=0;" parent="1" edge="1">
          <mxGeometry relative="1" as="geometry">
            <mxPoint x="120" y="237" as="sourcePoint" />
            <mxPoint x="302" y="237" as="targetPoint" />
          </mxGeometry>
        </mxCell>
        <mxCell id="gzEWmLM0npyEMb-zcBX1-24" value="Envía request HTTP GET/POST &lt;br&gt;con JWT en&lt;br&gt;&lt;div&gt;&amp;nbsp;Authorization header&lt;/div&gt;" style="edgeLabel;html=1;align=center;verticalAlign=middle;resizable=0;points=[];" parent="gzEWmLM0npyEMb-zcBX1-23" connectable="0" vertex="1">
          <mxGeometry x="0.2431" y="-2" relative="1" as="geometry">
            <mxPoint x="-23" y="-28" as="offset" />
          </mxGeometry>
        </mxCell>
        <mxCell id="gzEWmLM0npyEMb-zcBX1-14" value="Cliente" style="rounded=0;whiteSpace=wrap;html=1;" parent="1" vertex="1">
          <mxGeometry x="50" y="50" width="70" height="310" as="geometry" />
        </mxCell>
        <mxCell id="gzEWmLM0npyEMb-zcBX1-21" style="edgeStyle=orthogonalEdgeStyle;rounded=0;orthogonalLoop=1;jettySize=auto;html=1;entryX=0.989;entryY=0.296;entryDx=0;entryDy=0;exitX=0.017;exitY=0.291;exitDx=0;exitDy=0;exitPerimeter=0;entryPerimeter=0;" parent="1" source="gzEWmLM0npyEMb-zcBX1-16" target="gzEWmLM0npyEMb-zcBX1-14" edge="1">
          <mxGeometry relative="1" as="geometry">
            <mxPoint x="282" y="140" as="sourcePoint" />
            <mxPoint x="152" y="140" as="targetPoint" />
            <Array as="points">
              <mxPoint x="304" y="142" />
            </Array>
          </mxGeometry>
        </mxCell>
        <mxCell id="gzEWmLM0npyEMb-zcBX1-22" value="Return JWT" style="edgeLabel;html=1;align=center;verticalAlign=middle;resizable=0;points=[];" parent="gzEWmLM0npyEMb-zcBX1-21" connectable="0" vertex="1">
          <mxGeometry x="0.1108" y="-2" relative="1" as="geometry">
            <mxPoint y="-9" as="offset" />
          </mxGeometry>
        </mxCell>
        <mxCell id="gzEWmLM0npyEMb-zcBX1-29" value="" style="edgeStyle=orthogonalEdgeStyle;rounded=0;orthogonalLoop=1;jettySize=auto;html=1;" parent="1" edge="1">
          <mxGeometry relative="1" as="geometry">
            <mxPoint x="382" y="143" as="sourcePoint" />
            <mxPoint x="477" y="143" as="targetPoint" />
          </mxGeometry>
        </mxCell>
        <mxCell id="gzEWmLM0npyEMb-zcBX1-16" value="Smart Job&lt;br&gt;Api Users" style="rounded=0;whiteSpace=wrap;html=1;" parent="1" vertex="1">
          <mxGeometry x="302" y="50" width="80" height="310" as="geometry" />
        </mxCell>
        <mxCell id="gzEWmLM0npyEMb-zcBX1-26" style="edgeStyle=orthogonalEdgeStyle;rounded=0;orthogonalLoop=1;jettySize=auto;html=1;entryX=1;entryY=0.5;entryDx=0;entryDy=0;" parent="1" edge="1">
          <mxGeometry relative="1" as="geometry">
            <mxPoint x="477" y="237" as="sourcePoint" />
            <mxPoint x="382" y="237" as="targetPoint" />
          </mxGeometry>
        </mxCell>
        <mxCell id="gzEWmLM0npyEMb-zcBX1-18" value="BD" style="rounded=0;whiteSpace=wrap;html=1;" parent="1" vertex="1">
          <mxGeometry x="477" y="50" width="55" height="310" as="geometry" />
        </mxCell>
        <mxCell id="gzEWmLM0npyEMb-zcBX1-27" style="edgeStyle=orthogonalEdgeStyle;rounded=0;orthogonalLoop=1;jettySize=auto;html=1;entryX=1.08;entryY=0.838;entryDx=0;entryDy=0;entryPerimeter=0;" parent="1" edge="1">
          <mxGeometry relative="1" as="geometry">
            <mxPoint x="302" y="310" as="sourcePoint" />
            <mxPoint x="117.59999999999991" y="309.78" as="targetPoint" />
            <Array as="points" />
          </mxGeometry>
        </mxCell>
        <mxCell id="gzEWmLM0npyEMb-zcBX1-28" value="Envía response al Cliente" style="edgeLabel;html=1;align=center;verticalAlign=middle;resizable=0;points=[];" parent="gzEWmLM0npyEMb-zcBX1-27" connectable="0" vertex="1">
          <mxGeometry x="-0.1247" y="-2" relative="1" as="geometry">
            <mxPoint x="-10" y="13" as="offset" />
          </mxGeometry>
        </mxCell>
      </root>
    </mxGraphModel>
  </diagram>
</mxfile>
